<svg id="instagram-2016" xmlns="http://www.w3.org/2000/svg" width="24.758" height="24.759" viewBox="0 0 24.758 24.759">
  <path id="Path_17" data-name="Path 17" d="M8.254,12.379a4.126,4.126,0,1,1,4.126,4.127,4.126,4.126,0,0,1-4.126-4.127m-2.231,0a6.357,6.357,0,1,0,6.357-6.357,6.357,6.357,0,0,0-6.357,6.357M17.5,5.771a1.486,1.486,0,1,0,1.486-1.485h0A1.486,1.486,0,0,0,17.5,5.771M7.378,22.456a6.842,6.842,0,0,1-2.3-.426A3.847,3.847,0,0,1,3.655,21.1a3.819,3.819,0,0,1-.926-1.423,6.836,6.836,0,0,1-.426-2.3c-.06-1.3-.072-1.7-.072-5s.013-3.7.072-5a6.887,6.887,0,0,1,.426-2.3,3.847,3.847,0,0,1,.926-1.424,3.815,3.815,0,0,1,1.424-.926,6.836,6.836,0,0,1,2.3-.426c1.3-.06,1.7-.072,5-.072s3.7.013,5,.072a6.887,6.887,0,0,1,2.3.426,3.835,3.835,0,0,1,1.424.926,3.835,3.835,0,0,1,.926,1.424,6.836,6.836,0,0,1,.426,2.3c.06,1.306.072,1.7.072,5s-.012,3.7-.072,5a6.868,6.868,0,0,1-.426,2.3,4.1,4.1,0,0,1-2.35,2.349,6.836,6.836,0,0,1-2.3.426c-1.3.06-1.7.072-5,.072s-3.7-.012-5-.072M7.276.075a9.077,9.077,0,0,0-3,.575A6.072,6.072,0,0,0,2.078,2.078,6.049,6.049,0,0,0,.65,4.271a9.08,9.08,0,0,0-.575,3C.014,8.6,0,9.018,0,12.379s.014,3.784.075,5.1a9.08,9.08,0,0,0,.575,3,6.051,6.051,0,0,0,1.428,2.193,6.087,6.087,0,0,0,2.193,1.428,9.085,9.085,0,0,0,3,.575c1.321.06,1.742.075,5.1.075s3.784-.014,5.1-.075a9.08,9.08,0,0,0,3-.575,6.329,6.329,0,0,0,3.621-3.621,9.055,9.055,0,0,0,.575-3c.06-1.321.074-1.742.074-5.1s-.014-3.784-.074-5.1a9.077,9.077,0,0,0-.575-3,6.088,6.088,0,0,0-1.428-2.193A6.058,6.058,0,0,0,20.489.65a9.065,9.065,0,0,0-3-.575C16.164.015,15.742,0,12.38,0S8.6.014,7.276.075" transform="translate(0 0)" fill="#fff"/>
  <path id="Path_18" data-name="Path 18" d="M8.254,12.379a4.126,4.126,0,1,1,4.126,4.127,4.126,4.126,0,0,1-4.126-4.127m-2.231,0a6.357,6.357,0,1,0,6.357-6.357,6.357,6.357,0,0,0-6.357,6.357M17.5,5.771a1.486,1.486,0,1,0,1.486-1.485h0A1.486,1.486,0,0,0,17.5,5.771M7.378,22.456a6.842,6.842,0,0,1-2.3-.426A3.847,3.847,0,0,1,3.655,21.1a3.819,3.819,0,0,1-.926-1.423,6.836,6.836,0,0,1-.426-2.3c-.06-1.3-.072-1.7-.072-5s.013-3.7.072-5a6.887,6.887,0,0,1,.426-2.3,3.847,3.847,0,0,1,.926-1.424,3.815,3.815,0,0,1,1.424-.926,6.836,6.836,0,0,1,2.3-.426c1.3-.06,1.7-.072,5-.072s3.7.013,5,.072a6.887,6.887,0,0,1,2.3.426,3.835,3.835,0,0,1,1.424.926,3.835,3.835,0,0,1,.926,1.424,6.836,6.836,0,0,1,.426,2.3c.06,1.306.072,1.7.072,5s-.012,3.7-.072,5a6.868,6.868,0,0,1-.426,2.3,4.1,4.1,0,0,1-2.35,2.349,6.836,6.836,0,0,1-2.3.426c-1.3.06-1.7.072-5,.072s-3.7-.012-5-.072M7.276.075a9.077,9.077,0,0,0-3,.575A6.072,6.072,0,0,0,2.078,2.078,6.049,6.049,0,0,0,.65,4.271a9.08,9.08,0,0,0-.575,3C.014,8.6,0,9.018,0,12.379s.014,3.784.075,5.1a9.08,9.08,0,0,0,.575,3,6.051,6.051,0,0,0,1.428,2.193,6.087,6.087,0,0,0,2.193,1.428,9.085,9.085,0,0,0,3,.575c1.321.06,1.742.075,5.1.075s3.784-.014,5.1-.075a9.08,9.08,0,0,0,3-.575,6.329,6.329,0,0,0,3.621-3.621,9.055,9.055,0,0,0,.575-3c.06-1.321.074-1.742.074-5.1s-.014-3.784-.074-5.1a9.077,9.077,0,0,0-.575-3,6.088,6.088,0,0,0-1.428-2.193A6.058,6.058,0,0,0,20.489.65a9.065,9.065,0,0,0-3-.575C16.164.015,15.742,0,12.38,0S8.6.014,7.276.075" transform="translate(0 0)" fill="#fff"/>
</svg>
