<svg xmlns="http://www.w3.org/2000/svg" width="23.319" height="22.284" viewBox="0 0 23.319 22.284">
  <path id="linkedin-icon-1" d="M0,7.588A2.424,2.424,0,0,1,.788,5.732,2.89,2.89,0,0,1,2.836,5a2.8,2.8,0,0,1,2,.72,2.539,2.539,0,0,1,.788,1.936,2.37,2.37,0,0,1-.765,1.8,2.9,2.9,0,0,1-2.071.743H2.769a2.755,2.755,0,0,1-2-.743A2.5,2.5,0,0,1,0,7.588Zm.293,19.7V12.248h5V27.284Zm7.766,0h5v-8.4a2.93,2.93,0,0,1,1.137-2.51,2.446,2.446,0,0,1,1.609-.529q2.521,0,2.521,3.4v8.036h5V18.663a7.245,7.245,0,0,0-1.576-5.053,5.375,5.375,0,0,0-4.164-1.722,5.108,5.108,0,0,0-4.524,2.5v.045h-.023l.023-.045V12.248h-5q.045.72.045,4.479T8.058,27.284Z" transform="translate(0 -5)" fill="#fff"/>
</svg>
