<svg xmlns="http://www.w3.org/2000/svg" width="39.85" height="38.227" viewBox="0 0 39.85 38.227">
  <path id="noun-growth-5244896_1_" data-name="noun-growth-5244896 (1)" d="M85.015,62.337a1.023,1.023,0,0,1,0-2.045h2.269V49.849a1.023,1.023,0,0,1,1.023-1.023h6.208a1.023,1.023,0,0,1,1.023,1.023V60.292H99.29V44.02A1.023,1.023,0,0,1,100.313,43h6.209a1.023,1.023,0,0,1,1.023,1.023V60.292H111.3V38.128a1.023,1.023,0,0,1,1.023-1.023h6.209a1.023,1.023,0,0,1,1.023,1.023V60.292h2.269a1.023,1.023,0,0,1,0,2.045h-36.8ZM109.646,27.2a1.018,1.018,0,0,1-.016-2.036l5.78-.054a1.018,1.018,0,0,1,.87,1.56L113.46,31.66a1.017,1.017,0,1,1-1.773-1l1.147-2.03-20.794,10.3a1.02,1.02,0,0,1-.9-1.829l20.02-9.92-1.513.014Zm3.7,33.091h4.164V39.15h-4.164Zm-12.007,0H105.5V45.043h-4.164Zm-12.007,0h4.164v-9.42H89.329Z" transform="translate(-83.492 -24.61)" fill="#fff" stroke="#fff" stroke-width="1"/>
</svg>
