<svg xmlns="http://www.w3.org/2000/svg" width="48.744" height="38.175" viewBox="0 0 48.744 38.175">
  <path id="Path_52" data-name="Path 52" d="M123.8,75.828a1.083,1.083,0,0,0-1.073-1.073l-7.806-.1a1.1,1.1,0,1,0-.049,2.2l5.074.1-6.489,6.537a13.021,13.021,0,0,0-5.708-2.781A13.116,13.116,0,1,0,84.774,91.049l-2.439,2.439-3.171-3.171A1.1,1.1,0,0,0,77.6,91.879l3.171,3.171L76.626,99.2a1.09,1.09,0,0,0,0,1.561,1.152,1.152,0,0,0,.781.342.971.971,0,0,0,.781-.342l4.147-4.147,3.171,3.171a1.152,1.152,0,0,0,.781.342.971.971,0,0,0,.781-.342,1.09,1.09,0,0,0,0-1.561L83.9,95.05l2.439-2.439a12.77,12.77,0,0,0,5.708,2.781,12.859,12.859,0,0,0,3.708,7.367,13.12,13.12,0,0,0,9.269,3.854,12.918,12.918,0,0,0,9.269-3.854A13.093,13.093,0,0,0,115.021,85l6.635-6.635.1,5.318a1.1,1.1,0,1,0,2.2-.049ZM83.847,82.561a10.654,10.654,0,0,1,3.22-7.708,10.939,10.939,0,0,1,7.708-3.22,10.946,10.946,0,0,1,10.684,8.782A13.107,13.107,0,0,0,91.8,93.1a10.689,10.689,0,0,1-7.953-10.538Zm21.856.049a10.654,10.654,0,0,1-3.22,7.708,10.939,10.939,0,0,1-7.708,3.22,3.7,3.7,0,0,1-.732-.049,11.022,11.022,0,0,1,3.171-7.708,10.866,10.866,0,0,1,7.708-3.22,3.9,3.9,0,0,1,.781.049Zm6.977,18.637a10.984,10.984,0,0,1-15.465,0,10.739,10.739,0,0,1-2.976-5.562h.488A13.171,13.171,0,0,0,107.85,82.951a11.286,11.286,0,0,1,4.83,2.781,10.954,10.954,0,0,1,0,15.514Z" transform="translate(-75.705 -68.937)" fill="#fff" stroke="#fff" stroke-width="1"/>
</svg>
