<svg xmlns="http://www.w3.org/2000/svg" width="41.41" height="35.295" viewBox="0 0 41.41 35.295">
  <path id="Path_51" data-name="Path 51" d="M123.98,59.091c-.93-.073-1.863-.109-2.78-.107V57.577a1.263,1.263,0,0,0-1.164-1.257,23.3,23.3,0,0,0-12.675,2.528,26.381,26.381,0,0,0-2.422,1.419,26.407,26.407,0,0,0-2.431-1.423,23.294,23.294,0,0,0-12.666-2.525,1.263,1.263,0,0,0-1.164,1.257v1.409c-.917,0-1.85.033-2.78.107h0a1.263,1.263,0,0,0-1.164,1.257V84.011A1.262,1.262,0,0,0,86.1,85.268c6.129-.482,12.285,1.154,18.3,4.861h0a1.261,1.261,0,0,0,1.326,0c6.078-3.748,11.987-5.338,18.065-4.861a1.262,1.262,0,0,0,1.362-1.257V60.352a1.263,1.263,0,0,0-1.164-1.26Zm-15.463,2a20.741,20.741,0,0,1,10.157-2.318V78.219A23.322,23.322,0,0,0,106.2,81.456v-19a23.716,23.716,0,0,1,2.315-1.367ZM91.2,58.774h0a20.719,20.719,0,0,1,10.15,2.313,23.817,23.817,0,0,1,2.323,1.371v19a23.326,23.326,0,0,0-11.884-3.243q-.294,0-.589.007Zm31.415,23.9a31.789,31.789,0,0,0-17.565,4.9,32.575,32.575,0,0,0-17.794-4.9V61.54c.475-.02.949-.03,1.418-.028V79.55a1.263,1.263,0,0,0,1.362,1.257A21.16,21.16,0,0,1,104.211,84.8a1.263,1.263,0,0,0,1.455,0,21.163,21.163,0,0,1,14.171-3.989,1.263,1.263,0,0,0,1.362-1.257V61.512c.469,0,.943.008,1.418.028Z" transform="translate(-84.234 -55.731)" fill="#fff" stroke="#fff" stroke-width="1"/>
</svg>
